<svg width="513" height="513" viewBox="0 0 513 513" fill="none" xmlns="http://www.w3.org/2000/svg">
<path d="M53.4471 226.059C51.8009 225.29 50.3332 224.756 49.3245 223.758C38.667 213.209 27.944 202.72 17.5636 191.903C14.4908 188.701 15.6342 184.564 17.7821 180.996C18.3653 180.027 19.386 179.321 20.2093 178.497C54.6183 144.084 89.0449 109.688 123.42 75.2415C129.253 69.3968 133.516 68.4569 139.772 75.1077C148.789 84.6928 158.338 93.7761 167.632 103.101C172.472 107.956 172.462 111.25 167.701 116.011C161.499 122.213 161.589 122.043 169.347 126.162C182.513 133.154 196.705 137.036 211.152 139.946C222.357 142.203 230.823 148.835 239.253 155.752C240.279 156.594 241.039 157.777 242.106 158.546C245.787 161.2 248.936 165.894 254.483 162.107C264.832 164.318 271.546 158.064 278.813 152.266C288.6 144.457 300.258 140.626 312.45 138.019C325.228 135.287 336.781 129.255 348.384 123.45C350.416 122.433 350.375 121.746 348.916 120.372C347.098 118.659 345.353 116.869 343.598 115.09C340.333 111.782 339.895 108.005 343.103 104.721C353.813 93.7552 364.65 82.9094 375.614 72.1975C378.689 69.1934 383.596 70.1692 387.587 74.107C394.23 80.6617 400.805 87.2854 407.404 93.8844C435.57 122.049 463.735 150.215 491.899 178.382C497.975 184.459 497.999 188.684 492.008 194.675C483.523 203.16 475.041 211.647 466.557 220.133C458.659 228.032 457.871 228.096 449.473 221.518C443.456 242.294 435.492 262.246 423.035 280.054C412.103 295.682 398.648 309.071 384.226 321.496C383.848 321.821 383.494 322.176 383.148 322.536C376.471 329.463 369.426 336.001 362.299 342.46C358.945 345.499 356.03 348.484 355.547 353.832C354.44 366.09 346.563 375.438 340.302 385.445C333.832 395.786 330.098 407.295 326.376 419.085C329.605 419.085 332.476 418.772 335.255 419.146C342.527 420.126 343.701 421.108 343.946 427.831C344.472 442.311 344.17 456.824 344.073 471.323C344.04 476.156 340.818 479.079 335.959 479.08C285.127 479.088 234.295 479.088 183.464 479.08C177.226 479.079 175.115 476.877 175.111 470.433C175.102 456.767 175.106 443.101 175.109 429.434C175.11 421.543 177.35 419.248 185.653 418.968C178.689 405.591 172.337 392.116 167.963 377.765C165.926 371.081 164.427 364.316 163.128 357.482C162.947 356.53 163.139 355.581 162.275 354.761C156.135 348.935 150.644 342.439 144.051 337.077C143.29 336.457 142.469 335.901 141.767 335.222C130.433 324.246 119.053 313.315 107.803 302.252C89.3186 284.074 76.6615 262.278 68.1115 237.942C66.2005 232.502 64.1083 227.129 62.8184 221.095C59.9571 223.458 57.863 226.647 53.4471 226.059Z" fill="#57A4FF"/>
<path d="M147.364 469.158C120.708 455.831 97.9659 437.887 78.6356 415.928C52.9848 386.788 35.6254 353.139 27.1303 315.117C24.4585 303.159 22.3721 291.135 21.9183 278.803C21.7503 274.24 21.1062 269.63 21.1193 265.016C21.135 259.511 24.1514 256.015 28.7212 256.087C33.2521 256.157 36.1429 259.642 36.0941 265.25C35.8858 289.167 40.2087 312.276 48.0166 334.836C56.5087 359.372 69.2338 381.383 85.7887 401.39C105.059 424.677 128.325 442.742 155.057 456.559C158.75 458.467 160.419 462.773 158.948 466.468C157.531 470.026 153.677 470.986 147.364 469.158Z" fill="#57A4FF"/>
<path d="M380.744 436.837C387.327 431.364 393.743 426.247 399.842 420.777C407.608 413.811 414.256 405.75 420.801 397.677C432.107 383.73 441.257 368.365 448.606 352.005C455.656 336.31 460.978 319.986 464.038 303.031C465.811 293.2 466.362 283.182 467.451 273.266C468.497 263.736 466.725 254.522 467.035 245.159C467.179 240.836 468.307 237.725 473.012 237.106C477.631 236.499 480.329 238.345 481.047 243.464C482.889 256.604 482.246 269.761 481.313 282.976C480.505 294.434 478.732 305.663 476.089 316.781C470.045 342.205 459.973 365.9 445.851 387.945C435.704 403.785 424.005 418.305 410.376 431.197C400.524 440.518 389.922 449.002 378.388 456.226C375.094 458.289 369.738 457.201 367.801 454.239C365.863 451.275 367.158 446.272 370.44 443.997C373.776 441.683 377.104 439.356 380.744 436.837Z" fill="#57A4FF"/>
<path d="M298.429 52.7698C285.358 50.0941 272.601 48.5474 259.615 47.8613C241.291 46.8931 223.511 49.236 205.652 52.7122C193.646 55.049 182.367 59.4445 170.831 63.146C166.673 64.4801 162.265 62.767 161.259 59.4306C159.879 54.8522 161.907 50.7887 166.206 49.0977C180.702 43.3958 195.664 39.1038 210.919 36.3203C229.47 32.9354 248.369 31.9611 267.173 33.233C290.276 34.7957 312.779 39.7947 334.474 48.0833C338.849 49.7547 343.241 51.401 347.52 53.2977C351.057 54.8657 352.706 59.84 351.086 63.21C349.083 67.3798 344.618 68.5313 339.355 66.137C326.936 60.4884 313.969 56.4774 300.779 53.1249C300.146 52.964 299.453 53.0407 298.429 52.7698Z" fill="#57A4FF"/>
<path d="M180.138 366.947C178.09 358.801 177.068 350.92 176.033 343.009C173.714 325.3 176.06 307.635 176.319 289.97C176.532 275.39 177.144 260.803 177.059 246.21C177.047 244.174 177.799 242.865 179.155 241.491C188.664 231.858 198.9 223.057 209.209 214.296C217.449 207.293 225.604 200.192 234.158 193.576C240.855 188.397 247.578 183.235 254.517 178.393C259.642 174.817 265.685 178.077 266.067 184.438C266.285 188.089 266.101 191.764 266.11 195.428C266.129 202.911 270.042 205.743 277.275 203.483C280.835 202.37 284.508 200.867 288.147 201.262C294.948 201.999 299.876 208.682 300.152 215.761C300.762 231.375 298.738 246.915 299.082 262.519C299.262 270.693 303.24 273.574 311.197 271.134C318.817 268.797 326.77 266.748 333.324 273.021C339.204 278.649 342.687 286.128 342.969 294.253C343.466 308.559 343.582 322.916 342.963 337.212C342.433 349.445 339.521 360.923 331.758 371.299C322.084 384.232 316.642 399.492 312.123 414.953C311.245 417.956 310.047 419.22 306.505 419.2C273.196 419.006 239.885 419.038 206.576 419.162C203.508 419.173 202.193 418.177 200.728 415.487C193.201 401.66 186.301 387.601 181.729 372.465C181.22 370.783 181.667 368.746 180.138 366.947Z" fill="white"/>
<path d="M306.799 154.779C324.877 151.259 341.171 144.113 356.89 135.608C360.706 133.543 362.729 133.971 365.778 137.066C388.222 159.85 410.86 182.446 433.605 204.931C436.709 207.999 437.527 210.637 436.191 214.859C431.84 228.604 427.18 242.178 420.673 255.105C414.684 267.005 407.099 277.847 398.03 287.393C385.602 300.476 372.269 312.701 359.398 325.221C357.39 324.202 358.165 322.684 358.149 321.514C358.065 315.019 357.818 308.506 358.169 302.028C358.899 288.553 354.756 276.612 347.003 265.902C341.094 257.738 328.185 252.086 317.971 254.738C314.529 255.632 314.048 254.466 314.068 251.492C314.161 238 313.873 224.501 314.19 211.015C314.407 201.797 302.893 187.26 290.351 187.082C281.638 186.959 282.723 186.545 279.773 178.642C277.013 171.248 281.169 169.163 285.542 165.896C290.9 161.892 296.499 158.446 302.668 155.834C303.972 155.282 305.18 155.217 306.799 154.779Z" fill="white"/>
<path d="M195.792 151.394C212.311 153.013 224.837 161.324 235.76 172.992C230.533 177.237 224.967 181.739 219.422 186.266C212.071 192.267 204.56 198.088 197.436 204.349C186.626 213.85 175.853 223.402 165.83 233.768C163.237 236.449 161.762 239.168 162.061 242.951C162.297 245.932 162.039 248.948 162.12 251.945C162.818 277.887 160.478 303.788 161.102 329.729C161.116 330.327 161.044 330.927 160.974 332.262C157.509 329.214 154.566 326.629 151.744 324.033C141.854 314.935 132.415 305.35 122.624 296.142C101.535 276.309 88.2918 251.908 78.8215 224.787C74.8187 213.323 76.3823 206.152 85.4342 197.762C106.684 178.064 126.749 157.082 147.101 136.43C149.8 133.691 151.746 133.584 154.844 135.303C166.781 141.928 179.245 147.341 192.498 150.795C193.444 151.041 194.454 151.042 195.792 151.394Z" fill="white"/>
<path d="M368.944 121.249C366.22 118.525 363.881 115.893 361.235 113.62C358.34 111.134 358.048 109.236 361.09 106.459C366.376 101.634 371.468 96.5629 376.285 91.2703C379.375 87.8749 381.442 87.911 384.707 91.2063C410.509 117.241 436.479 143.108 462.396 169.027C467.109 173.739 471.724 178.554 476.569 183.126C479.199 185.608 479.417 187.485 476.662 190.087C471.093 195.347 465.666 200.772 460.409 206.344C458.011 208.885 456.427 208.888 453.966 206.373C443.598 195.773 433.046 185.354 422.561 174.869C404.772 157.079 386.983 139.289 368.944 121.249Z" fill="#9AC8FF"/>
<path d="M269.109 465.098C244.124 465.098 219.638 464.974 195.156 465.202C190.278 465.247 188.775 463.733 189.016 458.956C189.377 451.812 189.216 444.634 189.069 437.475C189.003 434.222 190.277 433.098 193.476 433.102C237.448 433.163 281.421 433.163 325.393 433.109C328.847 433.104 330.141 434.531 330.089 437.9C329.975 445.394 329.9 452.895 330.122 460.383C330.236 464.231 328.614 465.175 325.073 465.152C306.586 465.032 288.097 465.097 269.109 465.098Z" fill="#9AC9FF"/>
<path d="M104.923 113.899C112.71 106.112 120.387 98.7074 127.717 90.975C130.821 87.7011 132.863 87.9619 135.78 91.1153C140.866 96.6128 146.243 101.849 151.656 107.03C153.728 109.013 153.61 110.297 151.624 112.277C120.13 143.67 88.6848 175.111 57.293 206.606C55.2643 208.641 53.9811 208.576 52.0436 206.553C46.9752 201.263 41.8953 195.958 36.4732 191.042C32.917 187.817 32.9574 185.675 36.4154 182.262C57.9887 160.971 79.3525 139.468 100.786 118.034C102.081 116.739 103.377 115.444 104.923 113.899Z" fill="#9AC9FF"/>
</svg>
