<svg width="274" height="321" viewBox="0 0 274 321" fill="none" xmlns="http://www.w3.org/2000/svg">
<path d="M79.1094 155.767C82.1617 157.395 88.1644 161.058 92.5392 163.907C104.545 171.741 115.431 175.607 132.116 177.846L137 178.456V249.677V321L91.4201 320.491C42.0758 319.983 40.5496 319.881 28.646 314.081C15.4196 307.671 7.07689 297.701 1.88811 281.625C-0.24845 275.317 -0.35019 247.337 1.68463 234.212C8.80649 186.901 27.0181 160.854 57.3369 154.444C67.9179 152.206 72.9032 152.511 79.1094 155.767Z" fill="#6AA9FF"/>
<path d="M194.893 155.767C191.84 157.395 185.837 161.058 181.462 163.907C169.456 171.741 158.57 175.607 141.884 177.846L137 178.456V249.677V321L182.582 320.491C231.928 319.983 233.454 319.881 245.358 314.081C258.585 307.671 266.928 297.701 272.117 281.625C274.253 275.317 274.355 247.337 272.32 234.212C265.198 186.901 246.986 160.854 216.666 154.444C206.084 152.206 201.099 152.511 194.893 155.767Z" fill="#2682FF"/>
<path d="M138.5 153C128.454 153 118.506 151.021 109.225 147.177C99.9433 143.332 91.51 137.697 84.4063 130.594C77.3026 123.49 71.6677 115.057 67.8232 105.775C63.9787 96.4939 62 86.5461 62 76.5C62 66.4539 63.9787 56.5061 67.8232 47.2247C71.6677 37.9433 77.3027 29.51 84.4063 22.4063C91.51 15.3026 99.9433 9.6677 109.225 5.82321C118.506 1.97873 128.454 -8.7826e-07 138.5 0L138.5 76.5L138.5 153Z" fill="#FFBB85"/>
<path d="M138 153C148.112 153 158.125 151.021 167.467 147.177C176.809 143.332 185.297 137.697 192.447 130.594C199.597 123.49 205.269 115.057 209.139 105.775C213.008 96.4939 215 86.5461 215 76.5C215 66.4539 213.008 56.5061 209.139 47.2247C205.269 37.9433 199.597 29.51 192.447 22.4063C185.297 15.3026 176.809 9.6677 167.467 5.82321C158.125 1.97873 148.112 -8.7826e-07 138 0L138 76.5L138 153Z" fill="#F5A86C"/>
</svg>
