<svg width="321" height="321" viewBox="0 0 321 321" fill="none" xmlns="http://www.w3.org/2000/svg">
<path d="M67.929 290.865C40.4715 271.615 21.2472 245.946 10.2175 214.481C-19.5248 129.634 24.7063 38.0979 109.932 9.39538C199.799 -20.8705 294.013 32.2587 316.578 123.366C317.294 126.259 317.687 129.231 317.872 132.466C316.18 131.52 314.808 130.314 313.518 129.025C290.129 105.648 266.755 82.2554 243.354 58.8897C241.96 57.497 240.368 56.3013 238.626 54.7872C232.236 46.1758 224.88 46.6574 219.15 55.4144C218.565 46.3802 213.38 42.4212 205.507 44.919C199.157 46.8045 199.501 52.3796 198.002 56.595C195.118 51.8518 191.249 50.0423 185.756 51.3632C183.247 53.9517 180.723 56.2739 179.029 59.0943C178.024 60.7675 178.327 63.2264 177.821 65.0422C175.129 60.8614 171.839 58.6017 166.669 59.4656C160.346 61.3741 158.241 65.6792 158.237 71.6721C158.226 89.7712 158.042 107.87 157.636 125.819C151.837 120.462 146.328 115.255 140.875 110.034C140.931 110.018 140.947 110.134 140.886 109.92C140.702 109.426 140.507 109.209 140.037 108.767C133.649 101.02 126.426 101.17 121.663 108.709C118.649 100.04 115.413 97.5132 108.455 98.7891C101.759 100.387 100.522 105.367 99.8123 110.683C99.3648 110.415 99.1733 110.331 98.859 109.912C96.2534 106.378 93.2075 104.477 88.6182 105.308C80.8641 107.505 79.8529 113.365 79.7169 119.691C76.8545 115.097 73.2552 112.809 67.621 114.033C62.2889 115.887 60.0742 119.494 60.0206 124.772C59.7158 154.746 59.3586 184.719 58.9526 214.691C58.8682 220.923 60.8365 226.024 65.8718 229.945C66.9647 230.796 67.9572 232.557 67.9638 233.904C68.0569 252.891 67.9713 271.878 67.929 290.865Z" fill="#30DDD0"/>
<path d="M238.868 55.0139C240.368 56.3013 241.96 57.497 243.354 58.8897C266.755 82.2554 290.129 105.648 313.518 129.025C314.808 130.314 316.18 131.52 317.835 132.891C319.057 145.726 321.222 158.497 320.606 171.132C319.114 201.705 308.918 229.573 290.946 254.45C277.312 273.323 260.536 288.74 239.724 299.601C239.362 260.568 239.396 221.955 239.273 183.342C239.262 179.897 240.054 178.511 243.712 177.852C249.352 176.835 253.295 172.895 254.719 167.406C258.885 151.356 262.76 135.228 266.566 119.088C267.882 113.512 264.228 107.799 258.847 106.22C253.088 104.529 247.202 107.411 245.116 113.087C244.26 115.416 243.837 117.903 242.998 120.239C242.47 121.71 241.534 123.035 240.781 124.425C240.246 124.284 239.711 124.142 239.176 124.001C239.176 122.133 239.183 120.264 239.174 118.396C239.074 97.2684 238.971 76.1412 238.868 55.0139Z" fill="#13BFAE"/>
<path d="M178.041 65.3319C178.326 63.2263 178.023 60.7674 179.028 59.0941C180.722 56.2737 183.246 53.9516 185.987 51.5817C190.629 53.9817 192.118 57.4004 192.063 62.0436C191.891 76.8363 191.96 91.6325 192.04 106.427C192.053 108.785 190.784 111.982 195.378 112.067C199.841 112.149 198.975 109.182 198.98 106.661C199.01 92.033 199.028 77.4043 198.955 62.7762C198.945 60.8262 198.401 58.8788 198.104 56.9303C199.5 52.3795 199.157 46.8044 205.835 44.9858C207.034 45.6564 207.551 46.3048 208.046 47.4243C208.015 134.526 207.999 221.157 208.055 307.787C208.056 309.642 208.895 311.497 209.343 313.352C195.71 318.192 181.544 320.068 166.761 320.441C166.317 276.922 166.326 233.891 166.253 190.861C166.249 188.663 165.542 186.466 165.237 183.889C166.16 180.655 167.224 177.842 167.813 174.934C169.512 166.539 165.157 160.611 157.115 159.568C157.44 148.087 157.682 137.028 157.924 125.969C158.041 107.87 158.225 89.7711 158.236 71.672C158.24 65.679 160.346 61.3739 166.732 59.7835C171.489 64.0918 172.305 69.118 172.102 74.8651C171.735 85.2715 172.248 95.7088 171.888 106.116C171.72 110.971 173.275 112.816 178.292 111.692C178.701 97.1524 178.828 82.9087 178.894 68.6646C178.896 68.098 178.322 67.5287 178.016 66.6881C178.024 66.0544 178.033 65.6932 178.041 65.3319Z" fill="#DE9380"/>
<path d="M209.718 313.302C208.895 311.497 208.056 309.643 208.055 307.787C207.999 221.157 208.016 134.526 208.406 47.4861C213.599 49.6091 212.805 54.4465 212.873 58.4549C213.153 74.9195 213.057 91.392 212.937 107.86C212.912 111.187 214.161 112.835 217.245 111.697C218.245 111.328 218.913 108.776 218.928 107.215C219.099 90.0838 219.11 72.9511 219.165 55.8188C224.88 46.6575 232.236 46.1758 238.626 54.7873C238.97 76.1413 239.073 97.2685 239.174 118.396C239.183 120.264 239.175 122.133 239.175 124.001C239.711 124.142 240.246 124.284 240.781 124.425C241.534 123.035 242.469 121.71 242.998 120.239C243.837 117.903 244.259 115.416 245.115 113.088C247.201 107.411 253.087 104.529 258.846 106.22C264.228 107.8 267.881 113.512 266.566 119.088C262.759 135.228 258.885 151.356 254.719 167.406C253.294 172.895 249.352 176.835 243.712 177.852C240.053 178.511 239.261 179.898 239.272 183.342C239.395 221.955 239.362 260.568 239.389 299.664C229.636 304.516 219.864 308.884 209.718 313.302Z" fill="#D47F6C"/>
<path d="M100.069 110.867C100.522 105.367 101.76 100.387 108.508 99.1458C108.978 99.9816 109.028 100.459 109.051 101.407C109.008 171.935 108.991 241.991 108.975 312.047C94.1463 307.698 80.9527 300.127 68.1312 291.145C67.9715 271.878 68.057 252.891 67.964 233.904C67.9574 232.557 66.9649 230.796 65.8719 229.945C60.8367 226.024 58.8684 220.923 58.9528 214.691C59.3587 184.718 59.7159 154.745 60.0207 124.772C60.0744 119.494 62.2891 115.887 67.8294 114.302C72.8192 117.15 73.92 121.422 73.9561 126.052C74.0467 137.673 73.9435 149.296 74.0269 160.917C74.0417 162.977 72.9272 165.905 76.8468 165.997C81.1165 166.097 79.9538 162.934 79.9657 160.718C80.0385 147.105 79.9966 133.49 79.9929 119.876C79.853 113.364 80.8642 107.505 88.687 105.633C93.8128 110.12 94.1933 115.503 94.0756 121.33C93.8214 133.924 93.9974 146.526 93.9974 159.124C93.9974 161.224 93.9974 163.323 93.9974 165.987C96.4492 165.987 98.2308 165.987 100.302 165.689C100.689 147.681 100.791 129.971 100.847 112.26C100.848 111.869 100.319 111.477 100.019 111.053C100.001 111.021 99.9692 110.954 99.9914 110.929C100.014 110.905 100.069 110.867 100.069 110.867Z" fill="#FEBEAA"/>
<path d="M109.227 312.305C108.991 241.991 109.007 171.935 109.402 101.469C113.395 102.672 114.022 105.771 114.015 109.295C113.982 126.733 114.022 144.172 113.977 161.611C113.97 164.177 114.062 166.094 117.553 166.085C121.149 166.075 121.013 163.96 121.009 161.5C120.98 146.054 120.958 130.608 121.039 115.163C121.05 113.057 121.652 110.955 121.98 108.851C126.425 101.17 133.648 101.02 140.042 109.012C140.325 109.928 140.557 110.124 140.947 110.134C140.947 110.134 140.931 110.018 140.879 110.5C140.827 133.524 140.827 156.066 140.827 178.609C141.601 178.693 142.376 178.778 143.15 178.862C144.122 175.647 145.126 172.44 146.06 169.213C147.663 163.676 151.109 160.369 157.032 159.99C165.157 160.611 169.512 166.539 167.813 174.934C167.224 177.842 166.16 180.655 165.241 184.289C162.737 195.374 160.083 205.635 157.939 216.002C155.978 225.479 151.65 232.317 140.994 233.171C140.994 262.342 140.994 291.072 140.994 319.803C130.489 317.389 119.984 314.976 109.227 312.305Z" fill="#FAA68E"/>
<path d="M141.433 319.893C140.994 291.072 140.994 262.342 140.994 233.171C151.651 232.317 155.979 225.479 157.939 216.002C160.084 205.635 162.738 195.374 165.166 184.667C165.542 186.466 166.25 188.663 166.254 190.861C166.327 233.892 166.318 276.922 166.342 320.409C158.196 320.572 150.034 320.277 141.433 319.893Z" fill="#12BFAE"/>
<path d="M157.116 159.568C151.109 160.369 147.663 163.676 146.061 169.213C145.127 172.44 144.123 175.647 143.15 178.862C142.376 178.778 141.602 178.693 140.828 178.609C140.828 156.066 140.828 133.524 140.823 110.515C146.328 115.255 151.837 120.462 157.635 125.819C157.683 137.028 157.441 148.087 157.116 159.568Z" fill="#13BFAE"/>
<path d="M121.662 108.709C121.652 110.955 121.05 113.057 121.039 115.163C120.958 130.608 120.981 146.054 121.009 161.5C121.014 163.96 121.149 166.074 117.553 166.085C114.062 166.094 113.971 164.177 113.977 161.611C114.023 144.172 113.982 126.733 114.015 109.295C114.022 105.771 113.396 102.672 109.429 100.997C109.027 100.459 108.977 99.9817 108.874 99.1481C115.412 97.5132 118.649 100.04 121.662 108.709Z" fill="#E09481"/>
<path d="M198.002 56.595C198.402 58.879 198.946 60.8263 198.956 62.7763C199.028 77.4045 199.011 92.0332 198.981 106.662C198.975 109.182 199.842 112.149 195.379 112.067C190.785 111.982 192.053 108.785 192.041 106.427C191.961 91.6327 191.892 76.8365 192.064 62.0438C192.118 57.4005 190.63 53.9818 186.322 51.525C191.249 50.0423 195.118 51.8518 198.002 56.595Z" fill="#D3816E"/>
<path d="M219.15 55.4143C219.11 72.9509 219.099 90.0836 218.928 107.215C218.913 108.776 218.245 111.328 217.245 111.697C214.161 112.835 212.912 111.187 212.937 107.86C213.057 91.3918 213.153 74.9193 212.874 58.4548C212.805 54.4463 213.599 49.609 208.428 47.0148C207.551 46.3049 207.034 45.6565 206.188 44.9411C213.379 42.4211 218.565 46.3801 219.15 55.4143Z" fill="#CB6E59"/>
<path d="M100.012 165.987C98.2306 165.987 96.449 165.987 93.9971 165.987C93.9971 163.324 93.9971 161.224 93.9971 159.124C93.9971 146.526 93.8211 133.924 94.0754 121.33C94.193 115.503 93.8125 110.12 89.0312 105.667C93.2074 104.477 96.2533 106.378 98.9693 110.094C99.4081 110.836 99.6636 110.951 99.9689 110.954C99.9689 110.954 100 111.021 99.9973 111.514C100 130.001 100.006 147.994 100.012 165.987Z" fill="#F9A68E"/>
<path d="M178 111.987C173.276 112.817 171.721 110.972 171.889 106.116C172.249 95.709 171.736 85.2717 172.103 74.8652C172.306 69.1182 171.49 64.092 167.064 59.7402C171.839 58.6018 175.129 60.8614 177.82 65.0423C178.033 65.6933 178.025 66.0546 178.01 67.1613C178.003 82.6003 178.001 97.2938 178 111.987Z" fill="#D3806D"/>
<path d="M79.7163 119.691C79.9959 133.491 80.0377 147.105 79.9649 160.718C79.9531 162.934 81.1157 166.097 76.846 165.997C72.9264 165.905 74.0409 162.977 74.0261 160.917C73.9427 149.296 74.0459 137.673 73.9554 126.052C73.9193 121.422 72.8185 117.151 68.1865 114.3C73.2546 112.809 76.8539 115.097 79.7163 119.691Z" fill="#FAA68E"/>
<path d="M140.886 109.92C140.557 110.124 140.326 109.928 140.247 109.3C140.507 109.209 140.701 109.426 140.886 109.92Z" fill="#13BFAE"/>
<path d="M99.9909 110.929C99.6634 110.951 99.4079 110.836 99.0918 110.428C99.1729 110.331 99.3644 110.415 99.812 110.683C100.068 110.867 100.013 110.905 99.9909 110.929Z" fill="#E3B7A4"/>
<path d="M178.293 111.692C178.001 97.2937 178.003 82.6001 178.011 67.4336C178.323 67.5287 178.897 68.098 178.894 68.6647C178.828 82.9087 178.702 97.1524 178.293 111.692Z" fill="#CA8B78"/>
<path d="M100.301 165.689C100.006 147.994 99.9999 130.001 100.016 111.546C100.319 111.477 100.848 111.869 100.846 112.26C100.79 129.97 100.688 147.681 100.301 165.689Z" fill="#E3B7A4"/>
</svg>
