<svg width="322" height="262" viewBox="0 0 322 262" fill="none" xmlns="http://www.w3.org/2000/svg">
<path d="M214.923 251.066C205.28 239.686 204.814 227.423 210.455 214.005C198.681 214.005 187.408 213.941 176.137 214.036C171.386 214.075 166.802 213.699 162.886 210.691C161.403 209.551 160.253 209.853 158.873 210.866C155.213 213.553 150.989 214.066 146.564 214.034C135.078 213.949 123.591 214.005 111.701 214.005C118.325 231.036 116.116 245.797 100.613 256.418C89.9882 263.696 75.7829 262.832 65.9634 255.406C53.4437 245.937 50.5095 233.36 56.4557 214.005C44.7372 214.005 33.1022 214.04 21.4675 213.996C8.53601 213.947 1.07687 206.494 1.00674 193.529C0.949052 182.865 0.97651 172.2 0.999589 161.535C1.02656 149.072 8.10985 144.055 19.9138 148.105C29.3777 151.351 38.3925 148.762 43.4189 141.353C48.1381 134.397 47.6058 125.001 41.8519 118.748C35.8933 112.273 28.2643 110.647 20.448 113.946C9.24831 118.673 0.152826 111.714 0.859365 99.9955C1.50001 89.3697 0.925229 78.6741 1.01353 68.0103C1.1159 55.6484 8.66078 48.0821 20.9318 48.01C32.7421 47.9407 44.5532 47.995 56.435 47.995C50.5406 28.2038 53.8537 14.8664 66.7306 6.01123C77.5004 -1.39491 92.3001 -0.956161 102.681 6.91557C112.305 14.2132 119.696 28.3163 111.66 47.9946C114.118 47.9946 116.326 47.9946 118.534 47.9946C126.699 47.9946 134.973 48.8171 142.997 47.7528C150.353 46.777 156.824 53.1326 163.096 50.6335C170.201 47.8025 177.059 48.2012 184.107 48.0411C192.716 47.8456 201.333 47.9946 210.038 47.9946C204.649 26.4281 207.939 13.9949 221.041 5.65698C232.531 -1.6556 246.87 -0.848911 257.292 7.69643C269.021 17.3143 271.855 30.9185 265.331 47.9947C277.102 47.9947 288.653 48.0112 300.204 47.9839C303.386 47.9764 306.575 47.9998 309.507 49.3734C316.806 52.7924 320.919 58.5931 320.94 66.6463C321.051 109.471 321.082 152.296 320.94 195.12C320.903 206.425 312.912 213.898 301.441 213.984C289.496 214.073 277.549 214.004 265.487 214.004C271.799 233.198 268.019 247.802 254.75 256.323C242.031 264.49 226.995 262.606 214.923 251.066Z" fill="#030303"/>
<path d="M58.6931 136.352C62.1711 112.703 40.0774 93.8944 17.0156 101.717C14.3267 102.63 13.4934 101.946 13.5222 99.1351C13.63 88.6384 13.47 78.1386 13.6171 67.6429C13.6914 62.3479 16.1525 60.2791 22.0974 60.2374C33.0946 60.1602 44.1373 59.5976 55.0776 60.3899C65.6031 61.1521 73.0387 51.063 67.6376 40.8758C62.9439 32.0226 66.0773 21.5685 73.6688 16.4492C81.2486 11.3378 91.0956 12.3291 97.4335 18.8417C102.815 24.3718 104.161 32.933 100.865 40.6735C95.7617 52.6571 100.769 60.1887 113.875 60.2108C124.373 60.2286 134.871 60.1839 145.368 60.2259C152.667 60.2552 154.908 62.5103 154.93 69.8022C154.963 80.2999 155.474 90.8326 154.793 101.286C154.08 112.222 164.286 118.518 173.06 114.194C176.028 112.732 179.419 112.271 182.802 112.6C194.436 113.732 201.762 123.023 200.028 134.423C198.504 144.437 188.404 151.045 177.58 149.064C175.951 148.766 174.327 148.35 172.765 147.804C162.451 144.202 155.008 149.264 154.953 160.039C154.898 170.87 154.91 181.702 154.96 192.532C154.972 195.107 154.758 197.635 152.936 199.541C150.347 202.248 146.77 202.291 143.568 201.584C140.587 200.926 142.264 197.935 142.136 196.03C141.88 192.215 142.02 188.37 142.065 184.538C142.115 180.294 140.118 177.767 135.842 177.834C131.838 177.897 129.912 180.345 129.938 184.354C129.968 188.853 129.778 193.36 129.996 197.849C130.141 200.838 129.291 202.006 126.125 201.851C121.138 201.607 116.128 201.695 111.132 201.821C101.556 202.062 96.2788 210.328 99.9886 219.256C101.659 223.275 103.127 227.244 102.558 231.76C101.539 239.838 97.3275 245.435 89.6425 247.911C82.3358 250.265 75.6665 248.423 70.5194 242.739C64.9513 236.59 64.3319 229.318 67.1922 221.736C68.4174 218.489 70.2369 215.505 69.3127 211.751C67.7859 205.549 63.711 201.903 57.3453 201.835C46.0156 201.715 34.6838 201.806 23.3529 201.78C15.5134 201.762 13.5875 199.863 13.5664 192.114C13.5406 182.616 13.6135 173.118 13.5281 163.62C13.5029 160.822 13.6293 159.368 17.3061 160.389C37.1636 165.903 53.1017 156.685 58.6931 136.352Z" fill="#98E5E5"/>
<path d="M207.906 114.216C196.985 100.299 186.542 97.3621 167.069 102.646C167.069 90.9501 166.946 79.3386 167.124 67.7318C167.204 62.5187 169.913 60.2867 175.682 60.2424C186.512 60.1591 197.342 60.2328 208.172 60.2131C221.288 60.1892 226.246 52.6825 221.115 40.6541C216.702 30.3086 220.598 19.3647 230.286 14.891C239.355 10.7031 250.046 14.4709 254.431 23.5545C257.191 29.2711 257.574 35.408 254.429 40.8631C248.899 50.456 255.775 61.2778 267.376 60.3855C277.811 59.5829 288.356 60.1982 298.853 60.2235C306.436 60.2418 308.467 62.1724 308.471 69.5548C308.494 110.542 308.494 151.53 308.47 192.517C308.466 199.673 306.387 201.744 299.281 201.772C288.618 201.814 277.906 202.416 267.304 201.613C255.758 200.74 249.162 211.498 254.403 221.228C259.342 230.397 255.709 241.173 247.413 246.111C240.46 250.25 232.089 249.603 226.004 244.456C219.516 238.97 217.479 229.994 220.96 221.745C222.189 218.833 223.584 216.049 223.23 212.709C222.57 206.481 217.753 201.915 211.099 201.839C199.604 201.706 188.106 201.815 176.61 201.773C169.332 201.747 167.086 199.483 167.067 192.198C167.039 181.371 167.059 170.544 167.059 159.319C182.887 164.782 196.915 162.703 207.074 148.748C214.969 137.902 214.847 126.151 207.906 114.216Z" fill="#00D7DF"/>
<path d="M130.281 159.618C132.201 156.326 134.806 155.137 138.039 156.202C140.359 156.966 141.842 158.693 142.032 161.362C142.233 164.181 141.097 166.206 138.671 167.474C134.072 169.879 129.961 166.25 130.281 159.618Z" fill="#060803"/>
<path d="M291.013 121.997C291.013 126.162 291.03 129.828 291.009 133.493C290.975 139.598 288.986 142.32 284.64 142.261C280.38 142.203 278.487 139.518 278.469 133.282C278.435 121.785 278.475 110.288 278.452 98.7911C278.437 91.6168 277.578 90.7907 270.322 90.7566C266.157 90.7371 261.985 90.8723 257.828 90.687C253.912 90.5125 250.904 88.7794 250.959 84.4017C251.013 80.0903 253.901 78.2579 257.898 78.1865C263.394 78.0882 268.906 77.957 274.388 78.2618C283.955 78.7937 290.718 85.8241 290.955 95.5057C291.166 104.165 291.008 112.833 291.013 121.997Z" fill="#040809"/>
<path d="M281.091 163.012C277.842 159.519 277.675 156.217 281.068 153.28C283.762 150.949 286.677 151.456 289.09 153.812C291.202 155.873 291.62 158.501 290.042 161.085C287.935 164.538 284.886 164.837 281.091 163.012Z" fill="#040708"/>
</svg>
